<?xml version="1.0" standalone="no"?>
<!DOCTYPE svg PUBLIC "-//W3C//DTD SVG 20010904//EN"
 "http://www.w3.org/TR/2001/REC-SVG-20010904/DTD/svg10.dtd">
<svg version="1.0" xmlns="http://www.w3.org/2000/svg"
 width="1280.000000pt" height="1280.000000pt" viewBox="0 0 1280.000000 1280.000000"
 preserveAspectRatio="xMidYMid meet">

<g transform="translate(0.000000,1280.000000) scale(0.100000,-0.100000)"
fill="#000000" stroke="none">
<path d="M8435 11156 c-64 -30 -129 -99 -194 -204 -28 -46 -51 -85 -51 -86 0
-2 -30 -55 -68 -117 -37 -63 -76 -131 -87 -151 -11 -21 -23 -38 -27 -38 -5 0
-8 -4 -8 -10 0 -11 -116 -212 -320 -555 -75 -126 -139 -238 -143 -247 -3 -10
-13 -18 -22 -18 -8 0 -15 -9 -15 -19 0 -20 -19 -31 -55 -31 -16 0 -26 9 -35
31 -9 21 -16 27 -23 20 -7 -7 -5 -17 8 -31 10 -11 15 -20 11 -20 -4 0 2 -12
13 -26 32 -41 27 -54 -19 -54 l-40 0 0 80 0 80 -40 0 -40 0 0 80 0 80 -40 0
-40 0 0 40 c0 22 4 40 9 40 10 0 9 26 -2 36 -4 4 -7 16 -7 26 0 14 -8 18 -34
18 -30 0 -33 2 -28 26 3 16 -1 30 -9 35 -12 8 -12 10 0 18 9 6 10 11 2 15 -6
4 -11 20 -11 37 0 27 -2 29 -40 29 -36 0 -40 3 -40 24 0 13 4 26 8 28 5 2 12
17 16 33 6 28 5 29 -9 11 -14 -19 -15 -17 -15 22 0 40 -1 42 -30 42 -21 0 -28
4 -24 14 3 7 -2 16 -10 19 -9 4 -16 16 -16 28 0 19 -5 21 -36 17 -29 -3 -38
-1 -41 13 -7 27 -171 32 -192 7 -9 -10 -23 -18 -33 -18 -10 0 -18 -7 -18 -17
0 -10 -12 -29 -25 -42 -19 -18 -25 -33 -25 -67 0 -43 26 -114 42 -114 4 0 8
-10 8 -22 1 -23 21 -58 34 -58 14 0 46 -41 46 -60 0 -11 5 -20 12 -20 6 0 23
-10 36 -22 l24 -23 -6 23 c-7 21 -5 22 43 22 l51 0 0 -40 0 -40 40 0 40 0 0
40 c0 29 4 40 15 40 11 0 15 -11 15 -40 0 -29 -4 -40 -15 -40 -11 0 -15 -11
-15 -40 0 -24 -5 -40 -12 -40 -9 0 -9 -3 0 -12 7 -7 12 -25 12 -40 0 -26 3
-28 40 -28 l40 0 0 -80 c0 -79 0 -80 25 -80 23 0 25 -4 25 -40 0 -36 3 -40 25
-40 14 0 25 -6 25 -13 0 -8 7 -14 15 -15 8 -1 22 -3 30 -4 18 -2 20 -29 4 -45
-8 -8 -7 -21 2 -47 12 -33 16 -36 51 -36 38 0 38 0 38 -40 0 -33 -3 -40 -20
-40 -18 0 -20 -7 -20 -63 0 -62 -1 -65 -110 -247 -60 -101 -110 -184 -110
-185 0 -1 -41 -74 -91 -161 -51 -88 -119 -206 -152 -264 -33 -58 -70 -123 -83
-145 -13 -22 -27 -47 -31 -55 -4 -8 -35 -62 -70 -119 -35 -57 -63 -115 -63
-128 0 -30 79 -181 156 -300 19 -28 34 -54 34 -57 0 -5 75 -124 102 -161 9
-12 28 13 65 85 15 30 30 57 34 60 3 3 43 70 88 150 46 80 97 166 112 191 16
25 29 50 29 54 0 5 6 16 14 24 8 9 29 43 47 76 17 33 73 130 124 215 51 85
107 183 126 218 18 34 41 71 51 82 10 11 18 24 18 29 0 5 15 15 34 22 19 7 34
17 33 23 -1 6 17 12 41 14 l42 3 0 -40 0 -41 40 0 40 0 0 -79 c0 -54 -4 -81
-12 -84 -10 -3 -10 -9 0 -26 6 -11 12 -27 12 -35 0 -8 -6 -17 -12 -19 -7 -3
-8 -6 -3 -6 25 -2 37 16 26 37 -18 35 -14 52 15 52 42 0 54 -21 54 -94 l0 -66
80 0 80 0 0 -40 0 -39 -62 -3 -63 -3 23 -20 c12 -11 22 -27 22 -37 0 -14 8
-18 40 -18 l40 0 0 -40 c0 -24 -5 -40 -12 -40 -9 0 -9 -3 0 -12 7 -7 12 -25
12 -40 0 -26 3 -28 40 -28 l40 0 0 -40 0 -40 40 0 40 0 0 -40 0 -40 40 0 40 0
0 -80 0 -80 -31 0 c-19 0 -28 -4 -24 -11 4 -6 9 -8 12 -5 9 8 43 -28 43 -46 0
-13 8 -18 25 -18 22 0 25 -5 25 -32 0 -18 3 -43 6 -55 11 -41 24 -24 24 32 l0
55 40 0 40 0 0 -40 0 -40 40 0 40 0 0 -40 0 -40 -40 0 -40 0 0 -40 0 -40 40 0
40 0 0 -40 0 -40 40 0 40 0 0 -80 c0 -56 -4 -80 -12 -80 -9 0 -9 -3 0 -12 7
-7 12 -25 12 -40 0 -26 3 -28 40 -28 40 0 40 0 40 -39 0 -22 -5 -41 -12 -44
-10 -4 -10 -7 0 -18 6 -7 12 -23 12 -36 0 -20 5 -23 40 -23 l40 0 0 -40 0 -40
80 0 80 0 0 -80 c0 -64 -3 -80 -15 -80 -11 0 -15 -11 -15 -40 0 -29 4 -40 15
-40 11 0 15 11 15 40 l0 40 40 0 40 0 0 -110 c0 -93 -2 -109 -15 -104 -9 4
-15 0 -15 -10 0 -13 11 -16 55 -16 l55 0 0 -40 c0 -24 -5 -40 -12 -40 -9 0 -9
-3 0 -12 7 -7 12 -25 12 -40 l0 -28 80 0 80 0 0 -40 0 -40 -49 0 c-38 0 -49
-3 -47 -15 1 -8 5 -18 9 -21 4 -4 7 -16 7 -26 0 -14 8 -18 40 -18 l40 0 0 -40
0 -40 40 0 40 0 0 -70 c0 -40 -4 -70 -10 -70 -5 0 -10 -4 -10 -10 0 -5 23 -10
50 -10 l50 0 0 -39 c0 -22 -5 -41 -12 -43 -9 -3 -9 -6 0 -12 7 -4 12 -2 12 3
0 6 6 11 14 11 9 0 16 -15 19 -42 8 -67 26 -141 37 -152 7 -7 10 11 10 52 0
59 1 62 25 62 23 0 25 -4 25 -40 0 -29 4 -40 15 -40 12 0 15 -16 15 -80 l0
-80 40 0 40 0 0 -40 c0 -29 4 -40 15 -40 11 0 15 -11 15 -40 0 -36 3 -40 25
-40 22 0 25 -4 25 -39 0 -22 -5 -41 -12 -43 -9 -3 -9 -6 0 -12 7 -4 12 -2 12
3 0 6 18 11 40 11 l40 0 0 -80 0 -80 40 0 40 0 0 -40 c0 -29 4 -40 15 -40 11
0 15 -11 15 -40 0 -36 3 -40 25 -40 23 0 25 -4 25 -40 l0 -40 40 0 40 0 0 -40
0 -40 40 0 40 0 0 -40 0 -40 40 0 40 0 0 40 0 40 40 0 40 0 0 40 c0 36 -2 40
-25 40 -22 0 -25 4 -25 40 0 29 -4 40 -15 40 -11 0 -15 -11 -15 -40 l0 -40
-40 0 -40 0 0 80 c0 64 -3 80 -15 80 -11 0 -15 11 -15 40 l0 40 -65 0 -65 0 0
160 0 160 -40 0 c-40 0 -40 0 -40 39 0 32 4 40 20 43 13 2 17 7 11 16 -7 11
-11 11 -24 -2 -8 -9 -32 -16 -51 -16 l-36 0 0 79 c0 54 4 81 13 84 10 4 10 7
0 18 -11 11 -13 10 -13 -4 0 -13 -9 -17 -40 -17 l-40 0 0 40 c0 30 -4 40 -16
40 -21 0 -17 90 5 107 11 8 12 12 4 13 -7 0 -18 -9 -25 -20 -18 -29 -48 -26
-48 5 0 14 5 25 10 25 6 0 10 13 10 29 0 17 -4 33 -10 36 -5 3 -10 15 -10 26
0 14 -7 19 -25 19 -22 0 -25 4 -25 39 0 22 -6 44 -15 51 -10 9 -15 9 -15 1 0
-6 -17 -11 -40 -11 l-40 0 0 80 0 80 -40 0 -40 0 0 80 0 80 -80 0 -80 0 0 80
0 80 -40 0 -40 0 0 80 0 80 -40 0 -40 0 0 120 0 120 -80 0 -80 0 0 40 c0 36 3
40 25 40 23 0 25 4 25 40 0 36 -2 40 -25 40 -22 0 -25 4 -25 40 0 24 5 40 12
40 9 0 9 3 0 12 -7 7 -12 25 -12 40 0 26 -3 28 -41 28 l-41 0 3 43 4 42 -42
-4 -43 -3 0 81 0 81 -40 0 c-29 0 -40 4 -40 15 0 8 5 15 10 15 6 0 10 18 10
39 0 22 -4 43 -10 46 -5 3 -10 -3 -10 -14 0 -18 -6 -21 -40 -21 l-40 0 0 76
c0 61 4 80 18 90 16 13 16 15 0 25 -10 5 -18 19 -18 29 0 13 -7 20 -20 20 -25
0 -25 -8 0 -40 28 -35 25 -40 -20 -40 l-40 0 0 80 0 80 -40 0 c-40 0 -40 0
-40 39 0 33 4 40 23 43 l22 3 -22 20 c-13 11 -23 27 -23 37 0 11 -7 18 -18 18
-14 0 -17 8 -15 43 2 34 1 37 -6 17 -8 -23 -9 -23 -10 -4 -1 22 -31 56 -31 35
0 -6 -17 -11 -40 -11 l-40 0 0 80 0 80 -40 0 -40 0 0 60 c0 33 4 60 10 60 6 0
10 9 10 20 0 17 -7 20 -50 20 l-50 0 0 40 0 40 -40 0 c-39 0 -40 1 -40 35 0
19 5 35 10 35 6 0 10 14 10 30 0 17 -4 30 -10 30 -14 0 -12 28 2 32 9 3 9 6 0
12 -7 4 -12 2 -12 -3 0 -6 -7 -11 -15 -11 -11 0 -15 11 -15 40 0 36 -2 40 -25
40 -22 0 -25 4 -25 39 0 22 5 43 10 46 8 5 7 12 -2 23 -11 12 -11 16 0 20 10
3 10 7 1 18 -6 8 -15 14 -20 14 -12 0 -11 -47 1 -55 19 -11 10 -25 -16 -25
-14 0 -23 4 -19 10 3 6 -4 10 -16 10 -18 0 -21 5 -17 30 4 29 4 30 -39 30
l-43 0 0 80 c0 73 2 80 20 80 17 0 20 7 20 39 0 22 -5 41 -12 44 -8 2 -9 8 -4
13 5 5 11 4 13 -3 9 -24 23 -13 23 17 0 17 5 30 10 30 6 0 10 8 10 18 0 10 4
22 9 28 9 8 78 129 161 279 18 33 42 76 53 95 11 19 29 52 41 73 11 21 26 46
31 55 6 9 30 53 55 97 270 483 344 605 367 605 16 0 25 -8 29 -27 4 -16 21
-50 38 -78 18 -27 42 -70 55 -95 13 -25 26 -47 30 -50 3 -3 22 -34 40 -70 48
-92 55 -104 61 -110 3 -3 18 -30 34 -60 16 -30 38 -66 48 -79 10 -13 18 -28
18 -34 0 -6 11 -25 25 -43 14 -18 25 -39 26 -46 0 -7 9 -26 20 -43 10 -16 23
-39 28 -50 5 -12 16 -27 25 -34 9 -7 16 -21 16 -30 0 -9 11 -33 25 -53 14 -20
25 -40 25 -43 0 -4 9 -19 19 -34 10 -14 37 -61 59 -102 22 -42 53 -96 68 -120
43 -66 51 -81 69 -119 9 -19 23 -42 32 -52 9 -10 12 -18 7 -18 -5 0 -4 -4 2
-8 6 -4 33 -45 58 -92 26 -47 53 -92 60 -100 7 -8 19 -30 27 -47 8 -18 18 -33
22 -33 4 0 15 -15 23 -32 9 -18 26 -51 39 -73 14 -22 29 -50 34 -62 6 -12 33
-58 60 -102 28 -45 51 -85 51 -89 0 -5 11 -21 25 -36 14 -15 25 -35 25 -45 0
-10 9 -30 20 -44 11 -14 20 -29 20 -34 0 -4 13 -27 28 -49 33 -51 61 -102 61
-111 -1 -3 6 -10 15 -15 9 -5 16 -17 16 -26 0 -10 4 -22 9 -28 5 -5 24 -36 42
-69 17 -33 36 -66 41 -72 6 -7 22 -36 38 -65 79 -152 94 -178 101 -178 4 0 11
-10 15 -22 10 -34 85 -158 95 -158 5 0 8 -3 7 -7 -2 -11 17 -51 47 -98 14 -22
29 -49 34 -60 5 -11 21 -35 35 -54 14 -19 26 -40 26 -46 0 -6 12 -28 27 -50
15 -22 36 -57 48 -77 40 -75 89 -153 97 -156 4 -2 8 -8 8 -13 0 -4 20 -43 45
-85 25 -41 45 -80 45 -85 0 -5 5 -9 10 -9 6 0 10 -7 10 -15 0 -8 5 -15 10 -15
6 0 10 -6 10 -12 0 -7 14 -33 30 -57 16 -24 28 -47 25 -51 -3 -4 1 -10 9 -13
7 -3 16 -18 20 -33 4 -15 17 -41 30 -58 13 -17 26 -38 30 -46 16 -38 56 -95
64 -93 6 1 7 -7 4 -19 -3 -14 -1 -19 6 -14 6 3 14 -4 18 -16 4 -13 10 -25 13
-28 14 -11 41 -60 41 -75 0 -9 5 -13 10 -10 6 3 10 -3 10 -13 0 -11 7 -25 15
-32 8 -7 25 -35 38 -61 12 -27 25 -49 29 -49 5 0 8 -5 8 -11 0 -17 46 -80 53
-72 4 3 7 0 7 -9 0 -19 26 -72 61 -123 15 -22 34 -56 43 -75 9 -19 36 -66 61
-105 24 -38 48 -77 51 -85 4 -8 17 -28 28 -45 11 -16 21 -34 22 -41 1 -6 16
-30 33 -54 17 -24 31 -49 31 -55 0 -7 16 -36 35 -65 19 -29 35 -53 35 -55 0
-4 131 -229 140 -240 5 -5 27 -46 50 -90 43 -83 47 -89 136 -241 30 -50 54
-100 54 -111 l0 -22 -712 5 c-392 3 -724 8 -738 12 -30 7 -54 9 -187 11 -84 1
-103 4 -103 16 0 11 -11 15 -40 15 -29 0 -40 -4 -40 -15 0 -11 -11 -15 -40
-15 -29 0 -40 4 -40 15 0 8 -8 15 -19 15 -14 0 -20 10 -25 40 -6 38 -8 40 -42
40 l-35 0 34 -33 c28 -26 34 -38 30 -60 -3 -15 -9 -24 -13 -22 -5 3 -11 1 -15
-4 -3 -6 -16 -6 -35 0 -19 7 -35 7 -47 0 -12 -6 -73 -7 -158 -4 -227 9 -1225
9 -1225 0 0 -10 74 -150 108 -207 12 -19 25 -42 29 -50 13 -30 138 -235 151
-249 12 -12 122 -14 713 -13 542 1 699 -1 699 -11 0 -7 4 -6 10 3 5 8 10 10
10 5 0 -6 9 -11 20 -11 11 0 20 4 20 8 0 15 19 8 23 -9 4 -17 5 -17 6 0 0 9 4
17 7 17 12 0 60 -58 56 -69 -2 -6 1 -11 7 -11 6 0 11 18 11 40 l0 40 40 0 40
0 0 -40 0 -40 40 0 40 0 0 -40 c0 -29 -4 -40 -15 -40 -11 0 -15 -11 -15 -40
l0 -40 55 0 55 0 0 -80 0 -80 41 0 41 0 -3 -142 c-1 -79 -7 -154 -11 -167 -5
-13 -6 -27 -2 -30 4 -3 9 0 11 7 3 7 22 12 44 12 l39 0 0 -56 c0 -49 -2 -55
-17 -49 -15 5 -16 4 -5 -6 15 -16 16 -49 0 -49 -6 0 -3 -9 7 -20 15 -17 16
-22 4 -36 -11 -14 -11 -18 -1 -21 7 -3 12 -21 12 -44 l0 -39 -200 0 c-171 0
-200 2 -200 15 0 13 -24 15 -160 15 -136 0 -160 -2 -160 -15 0 -13 -29 -15
-200 -15 -171 0 -200 2 -200 15 0 11 -12 15 -46 15 -25 0 -43 -4 -40 -9 7 -11
-40 -32 -59 -25 -11 4 -15 0 -15 -16 0 -12 -7 -29 -16 -37 -13 -14 -17 -14
-25 -2 -5 8 -9 22 -9 33 0 12 -5 16 -15 12 -9 -3 -15 0 -15 8 0 8 -9 24 -21
37 -26 30 34 -91 68 -137 13 -17 23 -36 23 -42 0 -7 9 -12 20 -12 11 0 20 6
20 14 0 8 5 18 10 21 6 4 10 -11 10 -37 -1 -38 -2 -41 -14 -25 -16 21 -26 22
-26 3 0 -24 23 -36 43 -21 14 10 16 21 11 54 -4 28 -3 41 5 41 7 0 11 -22 11
-58 0 -49 -3 -61 -19 -68 -19 -9 -19 -9 1 -34 l21 -25 -7 27 -6 27 405 -1
c316 -1 407 -4 413 -13 4 -8 35 -15 72 -18 36 -2 50 -2 33 0 -49 6 -43 33 7
33 29 0 40 -4 40 -15 0 -12 20 -15 120 -15 66 0 120 4 120 9 0 12 151 25 159
14 3 -5 18 -9 34 -10 44 -1 47 -2 47 -19 0 -11 5 -14 16 -10 9 3 20 6 25 6 5
0 9 9 9 21 0 17 5 20 28 16 15 -2 21 -2 15 0 -7 3 -13 11 -13 19 0 10 12 14
40 14 36 0 40 2 40 26 0 20 5 25 23 24 60 -5 57 -11 57 129 0 102 3 131 15
141 16 14 20 40 6 40 -5 0 -12 -6 -14 -12 -3 -7 -6 -1 -6 15 -1 15 -5 27 -11
27 -5 0 -10 6 -10 14 0 8 -14 26 -31 40 -23 20 -30 32 -26 48 7 26 -9 49 -28
42 -8 -4 -15 3 -18 18 l-4 23 -2 -22 c-2 -33 -18 -28 -25 8 -9 47 -7 56 9 35
9 -12 15 -14 15 -7 0 17 -41 50 -60 50 -10 0 -11 -2 -2 -6 19 -7 4 -23 -24
-23 -21 0 -24 4 -24 36 0 31 2 35 15 24 12 -10 15 -10 15 4 0 11 -9 16 -31 16
-35 0 -79 35 -79 63 0 13 -9 17 -40 17 l-40 0 0 40 0 40 -40 0 -40 0 0 40 0
40 -40 0 -40 0 0 98 c0 59 4 102 11 109 19 19 0 33 -47 33 -41 0 -44 2 -44 26
0 26 1 26 55 22 50 -4 55 -3 55 15 0 17 5 19 34 14 19 -3 36 -2 38 3 2 5 354
12 783 17 l780 8 50 24 c44 22 73 47 124 107 33 38 52 115 46 181 -4 54 -16
87 -67 187 -33 66 -85 158 -114 203 -30 44 -54 84 -54 87 0 3 -14 29 -31 58
-18 29 -46 78 -62 108 -17 30 -48 82 -69 115 -21 33 -41 70 -44 83 -4 12 -9
22 -13 22 -3 0 -19 26 -36 57 -16 31 -38 65 -47 75 -10 10 -18 23 -18 29 0 6
-10 25 -22 42 -13 18 -23 34 -23 37 -1 10 -58 116 -70 130 -7 8 -30 47 -50 85
-55 103 -107 185 -116 185 -5 0 -9 8 -9 18 0 9 -7 26 -15 36 -8 11 -15 28 -15
38 0 10 -4 18 -10 18 -5 0 -17 17 -26 38 -10 20 -24 44 -31 54 -8 9 -15 22
-17 30 -1 7 -11 27 -22 43 -21 29 -68 115 -69 125 0 5 -56 102 -100 175 -13
22 -41 72 -61 110 -20 39 -48 91 -63 116 -14 26 -37 67 -51 90 -13 24 -29 52
-35 61 -5 9 -25 45 -44 79 -18 35 -40 69 -47 77 -8 7 -14 17 -14 22 0 16 -87
160 -93 153 -4 -3 -7 1 -7 9 0 17 -52 119 -93 185 -15 24 -27 45 -27 49 0 3
-19 38 -42 77 -23 40 -51 90 -62 112 -11 22 -23 42 -27 45 -3 3 -20 33 -37 67
-17 33 -35 63 -40 65 -5 1 -22 30 -39 63 -51 100 -84 159 -99 176 -8 8 -14 19
-14 23 0 3 -18 35 -40 70 -22 35 -40 66 -40 70 0 3 -25 44 -55 90 -30 46 -55
87 -55 91 0 4 -35 66 -79 139 -43 72 -86 146 -95 164 -9 18 -21 30 -26 27 -6
-3 -7 1 -4 10 4 9 -2 25 -13 38 -11 12 -27 36 -35 52 -29 61 -91 170 -104 186
-8 8 -14 18 -14 22 0 3 -14 30 -31 59 -48 81 -69 118 -100 177 -16 30 -32 57
-37 60 -5 3 -23 35 -41 71 -42 86 -90 171 -105 190 -7 8 -30 49 -51 90 -20 41
-48 89 -61 107 -13 17 -24 35 -24 40 0 4 -14 26 -30 47 -17 22 -30 44 -30 49
0 5 -10 23 -22 40 -29 40 -108 178 -108 188 0 4 -4 9 -8 11 -4 2 -23 30 -41
63 -60 107 -67 119 -109 188 -23 37 -42 70 -42 73 0 3 -13 24 -28 47 -16 23
-32 49 -36 57 -7 15 -38 69 -90 157 -15 26 -40 68 -53 93 -14 25 -36 59 -49
77 -13 17 -24 35 -24 39 0 4 -11 22 -25 40 -14 18 -25 35 -25 38 0 20 -90 133
-124 157 -23 16 -45 32 -51 37 -18 14 -91 32 -131 32 -22 0 -61 -11 -89 -24z
m-1531 -741 c3 -9 0 -15 -9 -15 -8 0 -15 7 -15 15 0 8 4 15 9 15 5 0 11 -7 15
-15z m156 -317 c0 -16 -3 -19 -11 -11 -6 6 -8 16 -5 22 11 17 16 13 16 -11z
m60 -58 c0 -29 -4 -40 -15 -40 -11 0 -15 11 -15 40 0 29 4 40 15 40 11 0 15
-11 15 -40z m30 -320 c0 -29 -4 -40 -15 -40 -11 0 -15 11 -15 40 0 29 4 40 15
40 11 0 15 -11 15 -40z m425 -270 c-3 -5 -10 -10 -16 -10 -5 0 -9 5 -9 10 0 6
7 10 16 10 8 0 12 -4 9 -10z m-225 -37 c0 -10 -4 -14 -8 -8 -4 6 -11 13 -16
18 -5 4 -2 7 7 7 10 0 17 -8 17 -17z m-70 -223 c0 -5 -4 -10 -10 -10 -5 0 -10
5 -10 10 0 6 5 10 10 10 6 0 10 -4 10 -10z m450 -10 c0 -11 -4 -20 -10 -20 -5
0 -10 9 -10 20 0 11 5 20 10 20 6 0 10 -9 10 -20z m-30 -50 c0 -5 -4 -10 -10
-10 -5 0 -10 5 -10 10 0 6 5 10 10 10 6 0 10 -4 10 -10z m-240 -180 c0 -5 -4
-10 -10 -10 -5 0 -10 5 -10 10 0 6 5 10 10 10 6 0 10 -4 10 -10z m220 -110 c0
-29 -4 -40 -15 -40 -11 0 -15 11 -15 40 0 29 4 40 15 40 11 0 15 -11 15 -40z
m640 -1175 c0 -8 -4 -15 -10 -15 -5 0 -10 7 -10 15 0 8 5 15 10 15 6 0 10 -7
10 -15z m2130 -3176 c0 -5 -6 -9 -14 -9 -8 0 -14 9 -13 19 1 15 4 17 14 9 7
-6 13 -14 13 -19z m-26 -45 c9 -22 8 -24 -9 -24 -8 0 -15 9 -15 20 0 24 15 27
24 4z m681 -1234 c-3 -5 -10 -10 -16 -10 -5 0 -9 5 -9 10 0 6 7 10 16 10 8 0
12 -4 9 -10z m140 -60 c0 -22 -39 -19 -43 3 -3 15 1 18 20 15 12 -2 23 -10 23
-18z m-1725 -286 c0 -14 -3 -14 -15 -4 -8 7 -15 14 -15 16 0 2 7 4 15 4 8 0
15 -7 15 -16z m1360 -129 c0 -11 -11 -15 -40 -15 -29 0 -40 4 -40 15 0 11 11
15 40 15 29 0 40 -4 40 -15z"/>
<path d="M7206 10157 c3 -10 9 -15 12 -12 3 3 0 11 -7 18 -10 9 -11 8 -5 -6z"/>
<path d="M7250 9991 c0 -5 6 -13 13 -19 10 -8 13 -6 14 9 1 10 -5 19 -13 19
-8 0 -14 -4 -14 -9z"/>
<path d="M6930 9820 c6 -11 15 -20 20 -20 17 0 11 15 -11 28 -19 12 -19 11 -9
-8z"/>
<path d="M7102 9542 c-9 -27 -8 -29 15 -24 17 3 23 10 21 25 -5 32 -25 31 -36
-1z"/>
<path d="M5877 9133 c-4 -3 -7 -11 -7 -17 0 -6 5 -5 12 2 6 6 9 14 7 17 -3 3
-9 2 -12 -2z"/>
<path d="M5911 9044 c0 -11 3 -14 6 -6 3 7 2 16 -1 19 -3 4 -6 -2 -5 -13z"/>
<path d="M5991 8994 c0 -11 3 -14 6 -6 3 7 2 16 -1 19 -3 4 -6 -2 -5 -13z"/>
<path d="M7831 8904 c0 -11 3 -14 6 -6 3 7 2 16 -1 19 -3 4 -6 -2 -5 -13z"/>
<path d="M8111 8533 c0 -17 -7 -33 -13 -36 -9 -3 -7 -7 5 -12 24 -10 26 -6 17
40 -7 38 -8 38 -9 8z"/>
<path d="M5600 8544 c0 -13 18 -39 24 -34 2 3 -2 14 -10 24 -8 11 -14 16 -14
10z"/>
<path d="M7660 8540 c0 -5 5 -10 11 -10 5 0 7 5 4 10 -3 6 -8 10 -11 10 -2 0
-4 -4 -4 -10z"/>
<path d="M5635 8470 c3 -5 8 -10 11 -10 2 0 4 5 4 10 0 6 -5 10 -11 10 -5 0
-7 -4 -4 -10z"/>
<path d="M5676 8417 c3 -10 9 -15 12 -12 3 3 0 11 -7 18 -10 9 -11 8 -5 -6z"/>
<path d="M7816 8305 c4 -8 8 -15 10 -15 2 0 4 7 4 15 0 8 -4 15 -10 15 -5 0
-7 -7 -4 -15z"/>
<path d="M8320 8170 c0 -5 5 -10 11 -10 5 0 7 5 4 10 -3 6 -8 10 -11 10 -2 0
-4 -4 -4 -10z"/>
<path d="M8140 7780 c0 -11 5 -20 10 -20 6 0 10 9 10 20 0 11 -4 20 -10 20 -5
0 -10 -9 -10 -20z"/>
<path d="M8496 7785 c-3 -8 -1 -15 4 -15 6 0 10 7 10 15 0 8 -2 15 -4 15 -2 0
-6 -7 -10 -15z"/>
<path d="M8208 7593 c7 -3 16 -2 19 1 4 3 -2 6 -13 5 -11 0 -14 -3 -6 -6z"/>
<path d="M6193 7423 c-53 -84 -71 -117 -99 -170 -15 -29 -31 -53 -36 -53 -4 0
-8 -4 -8 -9 0 -9 -122 -228 -138 -246 -7 -9 -52 -87 -93 -164 -10 -19 -23 -39
-29 -45 -5 -5 -10 -18 -10 -28 0 -10 -4 -18 -10 -18 -5 0 -10 -4 -10 -9 0 -6
-13 -30 -30 -54 -16 -25 -30 -50 -30 -56 0 -6 -4 -11 -9 -11 -5 0 -14 -15 -20
-32 -6 -18 -33 -69 -61 -113 -27 -44 -59 -100 -71 -125 -13 -25 -29 -51 -36
-58 -7 -7 -13 -19 -13 -26 0 -8 -7 -19 -15 -26 -8 -7 -15 -19 -15 -26 0 -8
-22 -47 -50 -88 -27 -41 -50 -78 -50 -82 0 -5 -24 -49 -54 -99 -48 -81 -114
-198 -191 -340 -15 -27 -34 -57 -41 -66 -8 -8 -14 -21 -14 -27 0 -7 -4 -12 -9
-12 -5 0 -11 -8 -14 -17 -9 -26 -105 -206 -114 -212 -4 -3 -17 -24 -28 -46
-11 -22 -22 -42 -25 -45 -15 -13 -50 -79 -50 -94 0 -9 -6 -19 -14 -22 -8 -3
-19 -18 -25 -32 -6 -15 -32 -61 -57 -102 -26 -41 -62 -104 -82 -140 -19 -36
-54 -99 -78 -140 -117 -205 -141 -294 -105 -390 28 -75 68 -120 137 -155 l58
-29 275 -3 c152 -1 957 -5 1790 -9 l1513 -7 -7 23 c-4 13 -20 45 -36 72 -16
27 -29 51 -29 53 0 2 -23 41 -51 87 -28 46 -65 109 -81 142 -16 32 -34 64 -39
70 -6 6 -19 26 -30 44 l-19 33 -1388 -6 c-1224 -6 -1390 -5 -1401 9 -10 12 -5
27 28 86 23 40 41 73 41 75 0 2 14 24 30 48 17 25 30 50 30 56 0 6 4 11 8 11
5 0 19 24 31 53 13 28 29 59 36 67 7 8 28 42 46 75 18 33 41 74 50 90 10 17
28 47 39 68 12 21 55 94 96 162 41 68 74 126 74 130 0 3 20 36 44 73 47 72 88
142 108 182 7 14 16 27 19 30 4 3 25 41 48 85 23 44 48 86 55 95 8 8 22 31 31
50 10 19 21 37 24 40 3 3 14 21 23 40 29 58 90 164 104 181 8 8 14 19 14 24 0
5 6 16 14 24 8 9 31 48 52 87 22 39 67 120 102 179 34 59 62 109 62 112 0 3
10 19 22 36 25 36 45 70 79 137 13 25 33 59 46 76 29 39 29 49 -3 104 -38 65
-63 110 -87 155 -12 22 -24 42 -27 45 -5 5 -11 15 -55 96 -69 127 -94 169
-103 172 -5 1 -23 -19 -39 -45z"/>
<path d="M8380 7280 c-9 -6 -10 -10 -3 -10 6 0 15 5 18 10 8 12 4 12 -15 0z"/>
<path d="M8880 7232 c0 -5 7 -13 16 -16 10 -4 14 -1 12 6 -5 15 -28 23 -28 10z"/>
<path d="M9010 6951 c0 -17 18 -21 24 -6 3 9 0 15 -9 15 -8 0 -15 -4 -15 -9z"/>
<path d="M8781 6738 c0 -26 4 -50 9 -53 11 -7 11 25 0 70 -7 27 -8 25 -9 -17z"/>
<path d="M9122 6709 c2 -7 10 -15 17 -17 8 -3 12 1 9 9 -2 7 -10 15 -17 17 -8
3 -12 -1 -9 -9z"/>
<path d="M9160 6627 c0 -9 10 -22 23 -28 l22 -12 -20 24 c-11 13 -21 26 -22
28 -2 2 -3 -3 -3 -12z"/>
<path d="M9180 6630 c0 -5 5 -10 11 -10 5 0 7 5 4 10 -3 6 -8 10 -11 10 -2 0
-4 -4 -4 -10z"/>
<path d="M8895 6509 c11 -13 21 -26 22 -28 2 -2 3 3 3 12 0 9 -10 22 -22 28
l-23 12 20 -24z"/>
<path d="M8885 6490 c3 -5 8 -10 11 -10 2 0 4 5 4 10 0 6 -5 10 -11 10 -5 0
-7 -4 -4 -10z"/>
<path d="M9280 6396 c0 -25 5 -46 10 -46 6 0 10 18 10 39 0 22 -4 43 -10 46
-6 4 -10 -12 -10 -39z"/>
<path d="M9440 6231 c0 -5 5 -13 10 -16 6 -3 10 -2 10 4 0 5 -4 13 -10 16 -5
3 -10 2 -10 -4z"/>
<path d="M9520 6116 c0 -9 5 -16 10 -16 6 0 10 4 10 9 0 6 -4 13 -10 16 -5 3
-10 -1 -10 -9z"/>
<path d="M9085 6070 c3 -5 8 -10 11 -10 2 0 4 5 4 10 0 6 -5 10 -11 10 -5 0
-7 -4 -4 -10z"/>
<path d="M9170 5983 c0 -24 10 -38 37 -52 14 -7 24 -8 28 -1 3 5 3 10 -2 10
-4 0 -14 14 -21 30 -15 33 -42 41 -42 13z"/>
<path d="M9252 5910 c0 -14 2 -19 5 -12 2 6 2 18 0 25 -3 6 -5 1 -5 -13z"/>
<path d="M9180 5890 c0 -5 5 -10 10 -10 6 0 10 5 10 10 0 6 -4 10 -10 10 -5 0
-10 -4 -10 -10z"/>
<path d="M9674 5839 c-3 -6 -1 -16 5 -22 8 -8 11 -5 11 11 0 24 -5 28 -16 11z"/>
<path d="M9507 5398 c-15 -39 -16 -48 -6 -48 13 0 22 24 16 47 -4 17 -4 17
-10 1z"/>
<path d="M9580 5336 c0 -14 4 -27 9 -31 12 -7 25 31 16 45 -11 18 -25 10 -25
-14z"/>
<path d="M10000 5140 c0 -13 7 -20 20 -20 13 0 17 5 14 14 -9 24 -34 28 -34 6z"/>
<path d="M10077 5043 c-4 -3 -7 -15 -7 -26 0 -25 13 -14 15 13 2 22 1 23 -8
13z"/>
<path d="M9891 4784 c0 -11 3 -14 6 -6 3 7 2 16 -1 19 -3 4 -6 -2 -5 -13z"/>
<path d="M10780 3826 c0 -8 5 -18 10 -21 6 -3 10 -14 10 -23 0 -11 14 -21 37
-29 38 -12 62 -9 27 3 -26 10 -64 45 -64 60 0 7 -4 16 -10 19 -5 3 -10 -1 -10
-9z"/>
<path d="M10540 3710 c0 -16 4 -30 8 -30 5 0 7 14 4 30 -2 17 -6 30 -8 30 -2
0 -4 -13 -4 -30z"/>
<path d="M10455 3670 c3 -5 8 -10 11 -10 2 0 4 5 4 10 0 6 -5 10 -11 10 -5 0
-7 -4 -4 -10z"/>
<path d="M10532 3581 c2 -7 7 -12 11 -12 12 1 9 15 -3 20 -7 2 -11 -2 -8 -8z"/>
<path d="M10616 3511 c-3 -5 1 -11 9 -15 9 -3 15 0 15 9 0 16 -16 20 -24 6z"/>
<path d="M10640 3461 c0 -12 5 -21 10 -21 6 0 10 6 10 14 0 8 -4 18 -10 21 -5
3 -10 -3 -10 -14z"/>
<path d="M2365 3110 c6 -10 -24 -70 -36 -70 -5 0 -9 -18 -9 -40 0 -29 -4 -40
-15 -40 -11 0 -15 -11 -15 -40 0 -29 4 -40 15 -40 11 0 15 -11 15 -41 0 -32
-3 -40 -15 -35 -9 3 -15 0 -15 -9 0 -7 7 -20 15 -29 8 -8 15 -22 15 -30 0 -9
6 -16 14 -16 8 0 16 -5 18 -11 3 -9 9 -9 25 0 12 6 41 11 64 11 54 0 47 -8 -9
-11 -32 -2 -42 -7 -40 -18 3 -13 26 -17 128 -22 69 -4 148 -11 175 -17 64 -14
105 -15 105 -3 0 6 -17 12 -37 14 l-38 4 43 1 c27 1 41 6 40 14 -2 8 19 12 71
13 50 0 76 4 79 13 2 7 21 12 43 12 28 0 39 4 39 15 0 11 11 15 40 15 31 0 40
-4 40 -17 0 -17 23 -18 360 -15 343 3 360 3 360 -15 0 -17 10 -18 153 -15 192
4 221 9 55 11 -78 1 -128 5 -128 11 0 7 193 10 560 10 l560 0 0 40 0 40 1000
0 1000 0 0 -40 0 -40 40 0 c36 0 40 -2 40 -26 l0 -25 197 3 c176 3 198 5 201
20 3 13 -6 18 -40 21 -24 2 12 4 80 5 101 2 122 5 122 17 0 11 11 15 40 15 29
0 40 -4 40 -15 0 -13 64 -15 520 -15 456 0 520 -2 520 -15 0 -8 3 -15 8 -16
47 -6 64 -4 69 9 3 7 0 18 -8 23 -12 8 -12 10 1 19 10 6 18 4 25 -8 8 -14 11
-11 16 18 l6 35 10 -26 c7 -15 19 -29 27 -32 22 -9 20 5 -4 36 -11 14 -20 30
-20 36 0 15 -10 14 -31 -5 -17 -15 -18 -13 -14 36 4 47 1 55 -25 82 -17 16
-30 35 -30 42 0 7 -7 21 -15 32 -8 10 -15 25 -15 32 0 18 -29 46 -38 37 -4 -3
0 -12 8 -19 17 -13 40 -51 40 -66 0 -6 -34 -10 -85 -10 -69 0 -85 3 -85 15 0
12 -16 15 -80 15 -64 0 -80 -3 -80 -15 0 -11 -11 -15 -40 -15 -29 0 -40 4 -40
15 0 11 -11 15 -40 15 -29 0 -40 -4 -40 -15 0 -13 -51 -15 -400 -15 l-400 0 0
40 0 40 -46 0 c-25 0 -53 4 -62 9 -19 10 -245 16 -277 8 -11 -3 -37 -6 -57 -6
l-38 -1 0 -45 0 -45 -1320 0 c-1167 0 -1320 2 -1320 15 0 11 -11 15 -40 15
-29 0 -40 -4 -40 -15 0 -13 -29 -15 -200 -15 -171 0 -200 2 -200 15 0 11 -11
15 -40 15 -29 0 -40 -4 -40 -15 0 -11 -11 -15 -40 -15 -29 0 -40 4 -40 15 0
11 -11 15 -40 15 -29 0 -40 -4 -40 -15 0 -13 -38 -15 -280 -15 -242 0 -280 2
-280 15 0 11 -11 15 -40 15 -22 0 -40 5 -40 10 0 6 -18 10 -40 10 -29 0 -40 4
-40 15 0 8 5 15 10 15 6 0 10 5 10 10 0 6 -23 9 -52 9 l-53 -2 40 -7 c30 -5
16 -8 -56 -9 -79 -1 -99 2 -110 16 -13 15 -12 16 8 11 13 -4 25 -3 28 2 4 7
-50 24 -67 21 -5 0 -8 6 -8 14 0 9 -9 15 -25 15 -31 0 -33 -17 -2 -23 16 -3
13 -5 -10 -6 -24 -1 -33 3 -33 14 0 14 -20 16 -140 14 -77 0 -138 -4 -135 -9z
m6442 -217 c-3 -10 -5 -2 -5 17 0 19 2 27 5 18 2 -10 2 -26 0 -35z m36 7 c3
-11 1 -20 -4 -20 -5 0 -9 9 -9 20 0 11 2 20 4 20 2 0 6 -9 9 -20z m-4843 -60
c0 -29 -4 -40 -15 -40 -11 0 -15 11 -15 40 0 29 4 40 15 40 11 0 15 -11 15
-40z m4670 0 c0 -29 -4 -40 -15 -40 -11 0 -15 11 -15 40 0 29 4 40 15 40 11 0
15 -11 15 -40z"/>
<path d="M2292 3060 c0 -14 2 -19 5 -12 2 6 2 18 0 25 -3 6 -5 1 -5 -13z"/>
<path d="M2800 3060 c0 -6 7 -10 15 -10 8 0 15 2 15 4 0 2 -7 6 -15 10 -8 3
-15 1 -15 -4z"/>
<path d="M9360 3060 c0 -5 5 -10 10 -10 6 0 10 5 10 10 0 6 -4 10 -10 10 -5 0
-10 -4 -10 -10z"/>
<path d="M3538 3043 c12 -2 32 -2 45 0 12 2 2 4 -23 4 -25 0 -35 -2 -22 -4z"/>
<path d="M3698 3043 c12 -2 32 -2 45 0 12 2 2 4 -23 4 -25 0 -35 -2 -22 -4z"/>
<path d="M3878 3043 c23 -2 61 -2 85 0 23 2 4 4 -43 4 -47 0 -66 -2 -42 -4z"/>
<path d="M6518 3043 c23 -2 61 -2 85 0 23 2 4 4 -43 4 -47 0 -66 -2 -42 -4z"/>
<path d="M7938 3043 c12 -2 32 -2 45 0 12 2 2 4 -23 4 -25 0 -35 -2 -22 -4z"/>
<path d="M8138 3043 c34 -2 90 -2 125 0 34 2 6 3 -63 3 -69 0 -97 -1 -62 -3z"/>
<path d="M8728 3033 c7 -3 16 -2 19 1 4 3 -2 6 -13 5 -11 0 -14 -3 -6 -6z"/>
<path d="M9385 3030 c3 -5 8 -10 11 -10 2 0 4 5 4 10 0 6 -5 10 -11 10 -5 0
-7 -4 -4 -10z"/>
<path d="M9540 3020 c0 -10 8 -24 18 -29 14 -7 17 -4 19 20 2 23 -2 29 -17 29
-13 0 -20 -7 -20 -20z"/>
<path d="M9469 3008 c-6 -12 -5 -47 2 -45 4 1 15 -7 23 -18 15 -20 15 -20 15
5 0 31 -31 75 -40 58z"/>
<path d="M8890 2841 c0 -5 5 -13 10 -16 6 -3 10 -2 10 4 0 5 -4 13 -10 16 -5
3 -10 2 -10 -4z"/>
<path d="M6818 2713 c12 -2 32 -2 45 0 12 2 2 4 -23 4 -25 0 -35 -2 -22 -4z"/>
<path d="M7680 2710 c0 -6 -33 -11 -77 -11 l-78 -2 105 -8 c114 -9 130 -7 130
16 0 11 -11 15 -40 15 -22 0 -40 -4 -40 -10z"/>
<path d="M3520 2684 c0 -10 13 -14 40 -14 25 0 40 5 40 13 0 7 -15 12 -40 13
-27 1 -40 -3 -40 -12z"/>
<path d="M3687 2688 c-7 -4 6 -8 30 -8 23 0 44 4 47 8 6 10 -61 10 -77 0z"/>
<path d="M4640 2685 c0 -11 11 -15 40 -15 29 0 40 4 40 15 0 11 -11 15 -40 15
-29 0 -40 -4 -40 -15z"/>
<path d="M8038 2693 c23 -2 59 -2 80 0 20 2 1 4 -43 4 -44 0 -61 -2 -37 -4z"/>
<path d="M8975 2690 c3 -5 8 -10 11 -10 2 0 4 5 4 10 0 6 -5 10 -11 10 -5 0
-7 -4 -4 -10z"/>
<path d="M2568 2643 c12 -2 32 -2 45 0 12 2 2 4 -23 4 -25 0 -35 -2 -22 -4z"/>
</g>
</svg>
