<?xml version="1.0" standalone="no"?>
<!DOCTYPE svg PUBLIC "-//W3C//DTD SVG 20010904//EN"
 "http://www.w3.org/TR/2001/REC-SVG-20010904/DTD/svg10.dtd">
<svg version="1.0" xmlns="http://www.w3.org/2000/svg"
 width="1280.000000pt" height="1280.000000pt" viewBox="0 0 1280.000000 1280.000000"
 preserveAspectRatio="xMidYMid meet">
<metadata>
Created by potrace 1.16, written by Peter Selinger 2001-2019
</metadata>
<g transform="translate(0.000000,1280.000000) scale(0.100000,-0.100000)"
fill="#000000" stroke="none">
<path d="M8425 11175 c-73 -35 -119 -94 -256 -324 -67 -113 -152 -255 -189
-316 -134 -223 -288 -482 -330 -555 -66 -116 -133 -220 -141 -220 -6 0 -23 28
-92 150 -10 19 -54 94 -97 165 -361 604 -362 605 -455 638 -108 38 -225 8
-302 -77 -30 -32 -140 -204 -208 -324 -5 -9 -42 -71 -81 -137 -39 -66 -97
-167 -129 -225 -32 -58 -86 -152 -120 -210 -70 -119 -117 -200 -201 -349 -33
-57 -64 -106 -70 -108 -9 -3 -31 30 -99 148 -13 22 -44 74 -137 229 -41 69
-96 161 -122 205 -169 287 -195 322 -269 356 -59 26 -127 24 -192 -7 -65 -30
-91 -61 -185 -224 -101 -175 -266 -453 -311 -527 -22 -34 -39 -65 -39 -69 0
-3 -29 -54 -64 -113 -35 -58 -75 -126 -88 -151 -14 -25 -58 -101 -99 -170 -40
-69 -86 -150 -103 -180 -16 -30 -33 -56 -38 -58 -4 -2 -8 -8 -8 -12 0 -5 -14
-33 -31 -62 -18 -29 -39 -66 -49 -83 -9 -16 -102 -176 -207 -355 -104 -179
-201 -345 -215 -370 -21 -37 -125 -218 -198 -345 -9 -16 -32 -55 -50 -85 -30
-50 -50 -84 -135 -235 -15 -27 -49 -86 -75 -130 -26 -44 -79 -135 -119 -202
-39 -68 -102 -176 -140 -240 -63 -109 -234 -407 -293 -513 -94 -167 -234 -406
-240 -408 -5 -2 -8 -8 -8 -13 0 -5 -31 -61 -70 -125 -38 -63 -70 -117 -70
-120 0 -3 -8 -17 -19 -32 -19 -28 -107 -179 -156 -267 -81 -146 -135 -241
-255 -450 -73 -126 -144 -250 -158 -275 -13 -25 -28 -49 -32 -55 -4 -5 -28
-46 -52 -90 -25 -44 -107 -188 -183 -320 -76 -132 -146 -254 -155 -271 -30
-52 -166 -286 -331 -569 -86 -149 -166 -286 -177 -305 -120 -214 -240 -425
-291 -515 -223 -389 -231 -407 -231 -476 0 -97 47 -176 131 -220 44 -23 46
-23 609 -31 883 -13 7573 -12 8365 0 755 12 727 9 799 72 47 42 70 104 64 177
-5 58 -41 134 -155 328 -19 33 -76 134 -126 225 -49 91 -99 178 -110 193 -13
19 -16 32 -10 38 6 6 300 14 764 20 812 10 817 11 898 64 80 54 129 156 117
247 -10 76 -33 125 -159 343 -94 163 -252 442 -370 655 -10 19 -24 40 -29 47
-5 7 -7 16 -4 21 3 5 254 12 558 16 962 12 1023 14 1094 47 81 38 154 150 154
236 0 36 -21 114 -40 148 -9 17 -41 75 -70 130 -30 55 -72 129 -95 165 -23 36
-74 124 -114 195 -41 72 -123 216 -183 320 -60 105 -114 199 -120 210 -7 11
-51 90 -99 176 -48 85 -113 200 -144 255 -32 54 -71 124 -87 154 -16 30 -37
69 -47 85 -10 17 -30 53 -46 80 -15 28 -73 131 -128 230 -55 99 -114 205 -130
235 -17 30 -70 124 -119 208 -48 85 -88 156 -88 159 0 3 -8 17 -19 31 -16 24
-99 169 -194 342 -17 30 -41 72 -54 92 -13 21 -23 40 -23 42 0 5 -37 70 -140
246 -40 69 -88 154 -108 190 -19 36 -40 72 -47 80 -6 8 -35 56 -64 105 -29 50
-82 140 -118 200 -84 140 -102 171 -265 455 -172 300 -175 305 -278 490 -48
85 -104 183 -124 218 -20 34 -51 88 -69 120 -18 31 -59 100 -91 152 -85 139
-165 271 -231 385 -124 214 -216 371 -225 385 -5 8 -17 29 -26 45 -16 29 -205
340 -266 437 -40 64 -82 103 -142 133 -68 34 -161 34 -231 0z m239 -957 c60
-106 128 -224 151 -263 23 -38 61 -106 85 -150 23 -44 46 -84 50 -90 5 -5 19
-30 32 -55 76 -141 115 -211 358 -634 14 -24 64 -109 111 -188 137 -229 229
-386 229 -392 0 -3 15 -29 33 -58 19 -29 47 -75 62 -103 16 -27 46 -81 68
-120 22 -38 60 -108 85 -155 25 -47 50 -92 56 -100 7 -8 21 -33 33 -55 49 -93
75 -138 158 -280 232 -398 303 -518 315 -532 5 -7 10 -15 10 -19 0 -3 29 -54
64 -113 35 -58 104 -173 152 -256 48 -82 185 -314 305 -515 119 -201 241 -407
270 -457 30 -51 89 -150 131 -220 97 -163 285 -482 362 -615 33 -57 85 -147
118 -202 32 -54 58 -105 58 -113 0 -13 -92 -14 -712 -8 -470 5 -717 11 -726
18 -13 10 -34 46 -142 237 -29 52 -73 128 -97 167 -23 40 -43 74 -43 76 0 2
-23 44 -52 93 -28 49 -69 121 -91 159 -78 137 -115 202 -187 325 -70 119 -101
174 -188 328 -78 137 -315 548 -342 592 -15 25 -40 68 -56 95 -97 173 -160
285 -180 317 -13 21 -24 39 -24 42 0 6 -262 464 -308 537 -43 69 -192 327
-192 333 0 6 -123 220 -292 511 -39 66 -87 149 -108 185 -21 36 -110 187 -197
335 -88 149 -162 278 -166 287 -7 19 31 94 143 288 21 36 71 126 113 200 41
74 84 149 94 167 54 94 251 446 276 493 43 79 56 100 65 100 4 0 56 -87 116
-192z m-1873 -294 c14 -21 50 -84 79 -139 29 -55 60 -111 70 -125 38 -56 250
-438 250 -451 0 -8 -8 -27 -18 -44 -10 -16 -32 -55 -49 -85 -17 -30 -79 -138
-138 -240 -59 -102 -119 -205 -133 -230 -31 -55 -119 -207 -182 -315 -26 -44
-72 -123 -102 -175 -31 -52 -62 -96 -70 -98 -8 -1 -24 16 -38 40 -13 24 -50
87 -82 141 -32 53 -58 100 -58 103 0 3 -5 10 -11 17 -28 33 -249 425 -249 443
0 21 62 132 259 468 44 76 81 140 81 142 0 2 25 44 55 94 31 50 72 121 92 158
20 37 55 96 78 132 23 36 59 98 81 137 21 40 44 71 49 70 6 -2 22 -21 36 -43z
m-1652 -496 c52 -95 138 -249 191 -343 54 -93 110 -194 126 -224 l28 -54 -20
-36 c-20 -36 -51 -88 -219 -376 -48 -82 -104 -179 -125 -215 -20 -36 -70 -121
-110 -190 -236 -406 -272 -468 -380 -660 -146 -261 -181 -322 -210 -370 -15
-25 -59 -99 -97 -165 -39 -66 -107 -181 -151 -255 -77 -130 -369 -637 -420
-730 -25 -45 -144 -251 -272 -470 -37 -63 -82 -142 -100 -175 -18 -33 -36 -64
-40 -70 -7 -9 -306 -533 -368 -645 -14 -25 -59 -103 -100 -175 -41 -71 -104
-182 -139 -245 -36 -63 -81 -142 -100 -175 -20 -33 -43 -73 -53 -90 -9 -16
-43 -74 -74 -127 -31 -54 -77 -137 -102 -185 -26 -49 -52 -95 -59 -103 -6 -8
-15 -22 -19 -30 -3 -8 -16 -31 -28 -50 -12 -19 -33 -57 -48 -85 -15 -27 -49
-88 -76 -135 -49 -85 -49 -85 -49 -175 0 -86 2 -93 34 -143 18 -29 52 -66 75
-81 82 -56 78 -56 636 -56 283 0 1793 -4 3355 -9 2445 -7 2842 -10 2856 -23 9
-8 56 -82 105 -166 48 -84 116 -199 152 -256 36 -57 65 -110 66 -118 1 -11
-84 -13 -499 -11 -275 2 -2245 2 -4377 1 -2133 -1 -3878 1 -3878 4 0 2 28 53
63 111 34 59 67 114 72 124 16 28 113 194 180 308 129 219 174 297 200 345 25
45 111 195 273 475 30 52 63 107 73 122 11 15 19 29 19 32 0 4 34 64 105 186
69 118 108 186 133 230 13 25 39 70 58 100 18 30 83 143 145 250 61 107 121
211 133 231 21 36 189 320 206 349 80 131 310 541 310 551 0 5 5 9 10 9 6 0
10 5 10 10 0 9 96 180 150 270 5 8 29 49 53 90 51 89 135 232 205 350 85 145
170 293 242 425 12 22 30 54 40 70 10 17 25 41 32 55 8 14 32 57 55 95 22 39
93 162 158 275 65 113 139 241 165 285 26 44 55 96 65 115 10 19 21 37 24 40
4 3 12 16 18 30 7 14 25 48 41 75 16 28 79 136 141 242 61 105 111 197 111
202 0 6 5 11 10 11 6 0 10 4 10 9 0 5 50 96 111 202 154 267 188 326 221 384
62 109 109 191 118 205 5 8 41 69 78 135 38 66 103 179 144 250 41 72 86 150
100 175 73 132 91 160 102 160 6 0 54 -78 105 -172z m2454 -916 c25 -43 71
-124 104 -182 204 -360 357 -624 433 -750 32 -52 140 -239 240 -415 101 -176
216 -376 258 -445 41 -69 83 -138 92 -155 10 -16 41 -70 70 -120 29 -49 70
-119 90 -155 20 -36 78 -137 129 -225 109 -187 156 -268 213 -367 22 -40 51
-89 63 -108 12 -19 51 -84 85 -145 59 -103 129 -224 265 -460 32 -55 77 -133
101 -172 24 -40 44 -75 44 -77 0 -3 24 -44 54 -93 30 -48 52 -91 50 -95 -3 -4
-316 -6 -695 -4 l-691 2 -19 25 c-10 13 -46 71 -80 129 -53 91 -126 213 -254
430 -52 88 -192 330 -244 422 -10 19 -39 70 -63 114 -25 43 -75 131 -110 194
-36 63 -92 162 -125 220 -33 58 -111 195 -173 305 -103 181 -147 259 -245 425
-17 30 -56 98 -85 150 -30 52 -73 128 -97 167 -24 40 -43 75 -43 77 0 2 -17
33 -38 67 -21 35 -49 85 -61 111 l-23 48 46 75 c25 42 46 78 46 80 0 2 20 38
45 78 25 41 45 78 45 82 0 4 8 19 18 33 11 15 33 52 49 82 17 30 61 107 98
170 37 63 81 140 97 170 17 30 50 87 73 125 23 39 63 108 90 155 77 136 75
133 90 120 8 -7 34 -46 58 -88z m-1784 -271 c12 -16 21 -31 21 -34 0 -5 217
-386 323 -569 32 -53 57 -105 57 -114 0 -9 -43 -88 -95 -174 -52 -87 -107
-180 -121 -207 -15 -26 -45 -77 -67 -113 -22 -35 -62 -105 -89 -155 -28 -49
-61 -108 -73 -131 -12 -22 -42 -74 -67 -115 -24 -41 -71 -121 -103 -179 -31
-58 -72 -130 -90 -160 -18 -30 -45 -77 -60 -105 -71 -129 -125 -225 -154 -273
-17 -29 -31 -55 -31 -57 0 -2 -33 -61 -74 -132 -193 -337 -310 -539 -330 -572
-13 -20 -66 -112 -118 -206 -244 -434 -306 -561 -314 -640 -4 -33 -1 -78 5
-101 24 -90 101 -168 191 -194 18 -5 229 -12 469 -15 240 -2 616 -7 836 -10
220 -3 830 -6 1355 -6 525 0 963 -3 973 -6 14 -3 87 -102 87 -117 0 -4 105
-188 190 -331 29 -49 67 -115 85 -145 17 -30 53 -89 78 -130 26 -41 47 -82 47
-92 0 -17 -93 -18 -2052 -18 -1129 -1 -2183 -3 -2343 -5 -914 -14 -1527 -16
-1540 -5 -11 9 -9 19 13 53 34 54 40 64 103 172 28 50 76 133 107 185 96 166
194 333 227 390 82 140 245 419 262 450 11 19 48 81 82 138 33 56 61 107 61
112 0 6 5 10 10 10 6 0 10 4 10 9 0 6 32 62 70 127 39 64 70 118 70 120 0 1
27 48 60 104 33 56 60 103 60 106 0 2 17 32 38 66 21 35 69 117 107 183 68
121 161 281 265 455 82 138 163 278 293 510 153 273 207 367 300 523 42 72 77
132 77 133 0 2 26 45 57 96 70 115 159 270 351 608 39 69 93 163 120 210 94
159 195 335 206 357 15 31 31 29 55 -6z m839 -1467 c41 -71 114 -196 162 -279
152 -263 197 -340 239 -409 23 -36 41 -68 41 -71 0 -3 19 -35 42 -72 41 -69
264 -447 366 -623 30 -52 81 -138 112 -190 31 -53 71 -121 88 -150 17 -30 77
-138 135 -240 58 -102 103 -188 101 -191 -2 -3 -594 -9 -1316 -13 -722 -4
-1338 -8 -1368 -10 -59 -3 -80 1 -80 15 0 5 35 69 79 141 84 142 150 257 251
433 67 119 161 280 275 470 40 66 105 176 145 245 122 209 202 344 221 372 11
15 19 30 19 33 0 3 19 38 43 78 24 39 69 117 101 172 32 55 78 133 102 173 24
40 44 75 44 78 0 17 104 174 113 171 5 -1 44 -61 85 -133z m3655 -2934 c44
-74 112 -189 151 -255 40 -66 75 -127 79 -135 4 -8 17 -31 30 -51 33 -52 132
-220 146 -247 10 -19 9 -23 -5 -29 -9 -3 -323 -3 -698 1 -734 8 -707 6 -736
62 -13 26 -77 136 -100 174 -46 75 -332 585 -333 595 -2 11 507 20 1078 20
l309 0 79 -135z"/>
</g>
</svg>
